<svg version="1.1" xmlns="http://www.w3.org/2000/svg" viewBox="-251.2 -1073.7 5033.4 1618.9"><desc>Created with Snap</desc><defs></defs><g><rect x="-251.2" y="-1073.7" width="5033.4" height="1618.9" fill="#000000" style=""></rect><g><g transform="matrix(0.5,0,0,-0.5,0,0)"><path d="M823 1352Q656 1352 535 1271Q415 1190 356 1053Q297 916 297 738Q297 605 329 495Q361 386 425 303Q489 221 591 175Q694 130 827 130Q998 130 1181 219L1210 72Q1061 -22 807 -22Q640 -22 507 33Q375 89 288 190Q202 292 157 432Q112 573 112 745Q112 911 161 1051Q210 1191 299 1291Q389 1392 523 1448Q657 1504 821 1504Q1070 1504 1241 1394L1173 1253Q1009 1352 823 1352ZM1462 1097L1630 1097L1630 0L1462 0L1462 1097ZM1462 1496L1630 1496L1630 1298L1462 1298L1462 1496ZM2113 0L1944 0L1944 1097L2084 1097L2105 940Q2170 1021 2267 1070Q2365 1120 2478 1120Q2668 1120 2759 1013Q2850 907 2850 686L2850 0L2683 0Q2683 660 2682 707Q2678 847 2625 912Q2573 977 2450 977Q2321 977 2235 915Q2149 853 2123 754Q2113 687 2113 600L2113 0ZM3760 894Q3687 982 3559 982Q3431 982 3350 891Q3269 801 3255 644L3834 644Q3834 807 3760 894ZM3592 -23Q3353 -23 3215 129Q3078 281 3078 545Q3078 800 3211 958Q3344 1117 3561 1120Q3765 1120 3884 980Q4004 841 4004 608Q4004 596 4003 564Q4003 532 4003 518L3250 518Q3253 331 3346 226Q3440 122 3598 122Q3772 122 3947 214L3973 79Q3806 -23 3592 -23ZM4403 -465L4236 -476L4236 1097L4383 1097L4399 948Q4543 1120 4745 1120Q4895 1120 4999 1045Q5103 970 5152 842Q5202 714 5202 543Q5202 379 5148 251Q5094 124 4989 50Q4885 -23 4745 -23Q4639 -23 4546 24Q4453 72 4397 150Q4403 42 4403 -60L4403 -465ZM4722 118Q4798 118 4858 152Q4918 187 4955 247Q4992 307 5011 383Q5030 460 5030 549Q5030 737 4951 857Q4872 978 4720 978Q4402 978 4402 567Q4402 344 4476 231Q4551 118 4722 118ZM6343 0L6176 0L6176 663Q6176 828 6123 903Q6071 978 5940 978Q5814 978 5727 915Q5641 852 5615 752Q5606 677 5606 585L5606 0L5439 0L5439 1523L5606 1533L5606 1087Q5606 1030 5602 946Q5743 1120 5976 1120Q6343 1120 6343 689L6343 0ZM6578 1097L6746 1097L6746 0L6578 0L6578 1097ZM6578 1496L6746 1496L6746 1298L6578 1298L6578 1496ZM7355 -20Q7195 -20 7128 66Q7062 152 7062 365L7062 1523L7228 1533L7228 431Q7228 363 7229 322Q7231 281 7237 241Q7243 202 7253 182Q7263 162 7282 145Q7301 129 7327 123Q7354 118 7393 118Q7425 118 7519 130L7528 -3Q7425 -20 7355 -20ZM7658 1097L7826 1097L7826 0L7658 0L7658 1097ZM7658 1496L7826 1496L7826 1298L7658 1298L7658 1496ZM8457 112Q8576 112 8666 177Q8757 243 8783 354L8783 539Q8778 539 8722 534Q8667 529 8650 528Q8433 509 8347 457Q8262 405 8262 290Q8262 202 8314 157Q8366 112 8457 112ZM8950 0L8820 0Q8805 64 8791 138Q8700 47 8620 12Q8540 -23 8432 -23Q8278 -23 8184 57Q8091 138 8091 289Q8091 457 8218 538Q8346 619 8586 639Q8619 642 8685 647Q8752 653 8785 656L8785 753Q8785 869 8731 925Q8677 981 8561 981Q8399 981 8234 901Q8229 913 8208 970Q8187 1028 8186 1030Q8259 1071 8359 1095Q8460 1120 8564 1120Q8769 1120 8859 1030Q8950 941 8950 726L8950 0Z" fill="#ffffff" style=""></path></g></g></g></svg>